<?xml version="1.0" encoding="utf-8"?>
<svg xmlns="http://www.w3.org/2000/svg"
	xmlns:xlink="http://www.w3.org/1999/xlink"
	width="34px" height="56px">
<path opacity="0.50" fill="rgb(255,255,255)" fill-rule="evenodd" d="M0.80 27.86 C0.80 27.41 1.02 26.91 1.36 26.57 C1.36 26.57 27.36 0.57 27.36 0.57 C27.69 0.24 28.20 0.01 28.64 0.01 C29.09 0.01 29.59 0.24 29.93 0.57 C29.93 0.57 32.72 3.36 32.72 3.36 C33.05 3.70 33.27 4.20 33.27 4.64 C33.27 5.09 33.05 5.59 32.72 5.93 C32.72 5.93 10.79 27.86 10.79 27.86 C10.79 27.86 32.72 49.79 32.72 49.79 C33.05 50.12 33.27 50.63 33.27 51.07 C33.27 51.57 33.05 52.02 32.72 52.35 C32.72 52.35 29.93 55.14 29.93 55.14 C29.59 55.48 29.09 55.70 28.64 55.70 C28.20 55.70 27.69 55.48 27.36 55.14 C27.36 55.14 1.36 29.14 1.36 29.14 C1.02 28.81 0.80 28.30 0.80 27.86 Z"/>
</svg>