<?xml version="1.0" encoding="utf-8"?>
<svg xmlns="http://www.w3.org/2000/svg"
	xmlns:xlink="http://www.w3.org/1999/xlink"
	width="29px" height="24px">
<path fill="rgb(255,255,255)" fill-rule="evenodd" d="M28.23 3.42 C27.20 3.87 26.07 4.19 24.91 4.32 C26.11 3.60 27.02 2.48 27.45 1.14 C26.34 1.80 25.09 2.28 23.79 2.53 C22.74 1.41 21.24 0.71 19.58 0.71 C16.38 0.71 13.81 3.30 13.81 6.48 C13.81 6.92 13.86 7.37 13.95 7.80 C9.17 7.55 4.90 5.26 2.06 1.76 C1.56 2.62 1.28 3.60 1.28 4.67 C1.28 6.67 2.29 8.44 3.85 9.48 C2.90 9.44 2.01 9.17 1.24 8.74 C1.24 8.76 1.24 8.80 1.24 8.82 C1.24 11.62 3.22 13.94 5.86 14.47 C5.38 14.60 4.86 14.67 4.35 14.67 C3.97 14.67 3.61 14.64 3.26 14.58 C3.99 16.87 6.11 18.53 8.65 18.58 C6.67 20.13 4.19 21.04 1.49 21.04 C1.01 21.04 0.56 21.03 0.10 20.97 C2.65 22.62 5.69 23.56 8.95 23.56 C19.56 23.56 25.36 14.78 25.36 7.16 C25.36 6.91 25.36 6.66 25.34 6.41 C26.47 5.58 27.45 4.57 28.23 3.42 Z"/>
</svg>