<?xml version="1.0" encoding="utf-8"?>
<svg xmlns="http://www.w3.org/2000/svg"
	xmlns:xlink="http://www.w3.org/1999/xlink"
	width="30px" height="31px">
<path fill="rgb(255,255,255)" fill-rule="evenodd" d="M15.95 24.29 C15.95 27.42 12.99 28.49 10.33 28.49 C7.47 28.49 3.62 27.17 3.62 23.74 C3.62 20.03 7.97 19.10 10.90 19.10 C11.20 19.10 11.49 19.10 11.79 19.14 C13.61 20.40 15.95 21.80 15.95 24.29 Z M13.81 8.91 C13.81 11.08 12.97 12.85 10.52 12.85 C7.35 12.85 5.56 8.60 5.56 5.89 C5.56 3.78 6.70 1.71 9.04 1.71 C12.35 1.71 13.81 6.19 13.81 8.91 Z M11.47 0.43 C10.35 0.43 9.22 0.55 8.13 0.78 C4.88 1.50 2.26 4.39 2.26 7.78 C2.26 11.37 5.26 13.92 8.72 13.92 C9.13 13.92 9.54 13.89 9.97 13.83 C9.79 14.39 9.58 14.78 9.58 15.37 C9.58 16.37 10.13 17.26 10.72 18.03 C7.52 18.12 2.56 18.94 0.97 22.15 C0.60 22.90 0.31 23.72 0.31 24.56 C0.31 28.70 5.13 30.13 8.47 30.13 C11.11 30.13 13.92 29.56 15.97 27.79 C17.49 26.47 18.47 24.81 18.47 22.76 C18.47 17.76 13.11 16.85 13.11 14.55 C13.11 12.19 17.11 11.83 17.11 7.10 C17.11 5.10 16.22 2.94 14.45 1.84 C14.45 1.84 16.86 1.84 16.86 1.84 C16.86 1.84 19.27 0.43 19.27 0.43 C19.27 0.43 11.47 0.43 11.47 0.43 Z M30.02 5.00 C30.02 5.00 25.45 5.00 25.45 5.00 C25.45 5.00 25.45 0.43 25.45 0.43 C25.45 0.43 23.16 0.43 23.16 0.43 C23.16 0.43 23.16 5.00 23.16 5.00 C23.16 5.00 18.59 5.00 18.59 5.00 C18.59 5.00 18.59 7.28 18.59 7.28 C18.59 7.28 23.16 7.28 23.16 7.28 C23.16 7.28 23.16 11.85 23.16 11.85 C23.16 11.85 25.45 11.85 25.45 11.85 C25.45 11.85 25.45 7.28 25.45 7.28 C25.45 7.28 30.02 7.28 30.02 7.28 C30.02 7.28 30.02 5.00 30.02 5.00 Z"/>
</svg>