<?xml version="1.0" encoding="utf-8"?>
<svg xmlns="http://www.w3.org/2000/svg"
	xmlns:xlink="http://www.w3.org/1999/xlink"
	width="28px" height="27px">
<path fill="rgb(255,255,255)" fill-rule="evenodd" d="M6.54 9.30 C6.54 9.30 0.65 9.30 0.65 9.30 C0.65 9.30 0.65 26.99 0.65 26.99 C0.65 26.99 6.54 26.99 6.54 26.99 C6.54 26.99 6.54 9.30 6.54 9.30 Z M6.92 3.84 C6.90 2.10 5.65 0.78 3.63 0.78 C1.63 0.78 0.31 2.10 0.31 3.84 C0.31 5.53 1.58 6.89 3.56 6.89 C3.56 6.89 3.60 6.89 3.60 6.89 C3.60 6.89 3.60 6.89 3.60 6.89 C5.65 6.89 6.94 5.53 6.92 3.84 Z M27.73 16.85 C27.73 11.42 24.84 8.89 20.97 8.89 C17.79 8.89 16.40 10.66 15.63 11.87 C15.63 11.87 15.67 11.87 15.67 11.87 C15.67 11.87 15.67 9.30 15.67 9.30 C15.67 9.30 9.79 9.30 9.79 9.30 C9.79 9.30 9.86 10.96 9.79 26.99 C9.79 26.99 9.79 26.99 9.79 26.99 C9.79 26.99 15.67 26.99 15.67 26.99 C15.67 26.99 15.67 17.12 15.67 17.12 C15.67 16.58 15.72 16.06 15.86 15.67 C16.29 14.62 17.25 13.53 18.88 13.53 C21.00 13.53 21.86 15.15 21.86 17.53 C21.86 17.53 21.86 26.99 21.86 26.99 C21.86 26.99 27.73 26.99 27.73 26.99 C27.73 26.99 27.73 16.85 27.73 16.85 Z"/>
</svg>