<?xml version="1.0" encoding="utf-8"?>
<svg xmlns="http://www.w3.org/2000/svg"
	xmlns:xlink="http://www.w3.org/1999/xlink"
	width="140px" height="140px">
<clipPath id="clip0">
<path fill-rule="evenodd" d="M-5.00 145.00 C-5.00 145.00 -5.00 -5.00 -5.00 -5.00 C-5.00 -5.00 145.00 -5.00 145.00 -5.00 C145.00 -5.00 145.00 145.00 145.00 145.00 C145.00 145.00 -5.00 145.00 -5.00 145.00 Z M70.00 5.00 C34.10 5.00 5.00 34.10 5.00 70.00 C5.00 105.90 34.10 135.00 70.00 135.00 C105.90 135.00 135.00 105.90 135.00 70.00 C135.00 34.10 105.90 5.00 70.00 5.00 Z"/>
</clipPath>
<circle clip-path="url(#clip0)" fill="none" cx="70.00" cy="70.00" r="65.00" stroke="rgb(255,255,255)" stroke-width="10.00px"/>
<circle fill="rgb(255,255,255)" cx="70.00" cy="70.00" r="60.00"/>
<path fill="rgb(223,91,99)" fill-rule="evenodd" d="M79.86 56.14 C79.86 51.18 74.01 48.99 69.86 48.99 C69.10 48.99 68.43 49.66 68.43 50.42 C68.43 51.18 69.10 51.85 69.86 51.85 C72.23 51.85 77.00 53.06 77.00 56.14 C77.00 56.90 77.67 57.57 78.43 57.57 C79.19 57.57 79.86 56.90 79.86 56.14 Z M87.00 56.14 C87.00 59.00 85.84 61.99 83.97 64.17 C83.12 65.16 82.14 66.09 81.24 67.12 C78.07 70.92 75.40 75.38 74.95 80.43 C74.95 80.43 64.77 80.43 64.77 80.43 C64.32 75.38 61.64 70.92 58.47 67.12 C57.58 66.09 56.60 65.16 55.75 64.17 C53.88 61.99 52.71 59.00 52.71 56.14 C52.71 47.21 61.78 41.85 69.86 41.85 C77.94 41.85 87.00 47.21 87.00 56.14 Z M92.72 56.14 C92.72 43.99 81.16 36.14 69.86 36.14 C58.56 36.14 47.00 43.99 47.00 56.14 C47.00 60.74 48.52 64.71 51.60 68.10 C54.68 71.50 58.74 76.27 59.10 81.05 C57.80 81.81 57.00 83.24 57.00 84.71 C57.00 85.78 57.40 86.81 58.12 87.57 C57.40 88.33 57.00 89.36 57.00 90.43 C57.00 91.90 57.76 93.24 59.01 94.04 C58.65 94.67 58.43 95.43 58.43 96.14 C58.43 99.04 60.71 100.43 63.30 100.43 C64.46 103.02 67.05 104.71 69.86 104.71 C72.67 104.71 75.26 103.02 76.42 100.43 C79.01 100.43 81.29 99.04 81.29 96.14 C81.29 95.43 81.07 94.67 80.71 94.04 C81.96 93.24 82.72 91.90 82.72 90.43 C82.72 89.36 82.32 88.33 81.60 87.57 C82.32 86.81 82.72 85.78 82.72 84.71 C82.72 83.24 81.91 81.81 80.62 81.05 C80.98 76.27 85.04 71.50 88.12 68.10 C91.20 64.71 92.72 60.74 92.72 56.14 Z"/>
</svg>