<?xml version="1.0" encoding="utf-8"?>
<svg xmlns="http://www.w3.org/2000/svg"
	xmlns:xlink="http://www.w3.org/1999/xlink"
	width="140px" height="140px">
<clipPath id="clip0">
<path fill-rule="evenodd" d="M-5.00 145.00 C-5.00 145.00 -5.00 -5.00 -5.00 -5.00 C-5.00 -5.00 145.00 -5.00 145.00 -5.00 C145.00 -5.00 145.00 145.00 145.00 145.00 C145.00 145.00 -5.00 145.00 -5.00 145.00 Z M70.00 5.00 C34.10 5.00 5.00 34.10 5.00 70.00 C5.00 105.90 34.10 135.00 70.00 135.00 C105.90 135.00 135.00 105.90 135.00 70.00 C135.00 34.10 105.90 5.00 70.00 5.00 Z"/>
</clipPath>
<circle clip-path="url(#clip0)" fill="none" cx="70.00" cy="70.00" r="65.00" stroke="rgb(255,255,255)" stroke-width="10.00px"/>
<circle fill="rgb(255,255,255)" cx="70.00" cy="70.00" r="60.00"/>
<path fill="rgb(199,82,89)" fill-rule="evenodd" d="M92.75 50.50 C92.75 52.57 91.07 54.25 89.00 54.25 C86.93 54.25 85.25 52.57 85.25 50.50 C85.25 48.43 86.93 46.75 89.00 46.75 C91.07 46.75 92.75 48.43 92.75 50.50 Z M101.50 39.25 C101.50 38.55 100.87 38.00 100.17 38.00 C86.58 38.00 79.12 41.12 69.35 50.85 C67.12 53.12 64.82 55.70 62.48 58.47 C62.48 58.47 47.67 59.25 47.67 59.25 C47.28 59.29 46.89 59.52 46.66 59.87 C46.66 59.87 37.91 74.87 37.91 74.87 C37.63 75.34 37.71 75.97 38.10 76.40 C38.10 76.40 40.60 78.90 40.60 78.90 C40.84 79.13 41.19 79.25 41.50 79.25 C41.62 79.25 41.73 79.25 41.85 79.21 C41.85 79.21 52.63 75.89 52.63 75.89 C52.63 75.89 63.61 86.87 63.61 86.87 C63.61 86.87 60.29 97.65 60.29 97.65 C60.17 98.08 60.29 98.55 60.60 98.90 C60.60 98.90 63.10 101.40 63.10 101.40 C63.37 101.63 63.69 101.75 64.00 101.75 C64.23 101.75 64.43 101.71 64.62 101.59 C64.62 101.59 79.62 92.84 79.62 92.84 C79.98 92.61 80.21 92.22 80.25 91.83 C80.25 91.83 81.03 77.02 81.03 77.02 C83.80 74.68 86.38 72.37 88.65 70.15 C97.91 60.85 101.50 52.22 101.50 39.25 Z"/>
</svg>