<?xml version="1.0" encoding="utf-8"?>
<svg xmlns="http://www.w3.org/2000/svg"
	xmlns:xlink="http://www.w3.org/1999/xlink"
	width="140px" height="140px">
<clipPath id="clip0">
<path fill-rule="evenodd" d="M-5.00 145.00 C-5.00 145.00 -5.00 -5.00 -5.00 -5.00 C-5.00 -5.00 145.00 -5.00 145.00 -5.00 C145.00 -5.00 145.00 145.00 145.00 145.00 C145.00 145.00 -5.00 145.00 -5.00 145.00 Z M70.00 5.00 C34.10 5.00 5.00 34.10 5.00 70.00 C5.00 105.90 34.10 135.00 70.00 135.00 C105.90 135.00 135.00 105.90 135.00 70.00 C135.00 34.10 105.90 5.00 70.00 5.00 Z"/>
</clipPath>
<circle clip-path="url(#clip0)" fill="none" cx="70.00" cy="70.00" r="65.00" stroke="rgb(255,255,255)" stroke-width="10.00px"/>
<circle fill="rgb(255,255,255)" cx="70.00" cy="70.00" r="60.00"/>
<path fill="rgb(199,82,89)" fill-rule="evenodd" d="M83.38 60.54 C83.38 60.54 79.20 56.36 79.20 56.36 C79.20 56.36 90.65 44.91 90.65 44.91 C90.65 44.91 94.83 49.09 94.83 49.09 C94.83 49.09 83.38 60.54 83.38 60.54 Z M100.85 49.09 C100.85 48.43 100.61 47.80 100.14 47.33 C100.14 47.33 92.41 39.60 92.41 39.60 C91.94 39.13 91.31 38.90 90.65 38.90 C89.99 38.90 89.36 39.13 88.89 39.60 C88.89 39.60 38.66 89.83 38.66 89.83 C38.19 90.30 37.95 90.93 37.95 91.59 C37.95 92.26 38.19 92.88 38.66 93.35 C38.66 93.35 46.39 101.08 46.39 101.08 C46.86 101.55 47.49 101.79 48.15 101.79 C48.81 101.79 49.44 101.55 49.91 101.08 C49.91 101.08 100.14 50.85 100.14 50.85 C100.61 50.38 100.85 49.76 100.85 49.09 Z M48.07 41.67 C48.07 41.67 46.90 37.84 46.90 37.84 C46.90 37.84 45.73 41.67 45.73 41.67 C45.73 41.67 41.90 42.84 41.90 42.84 C41.90 42.84 45.73 44.01 45.73 44.01 C45.73 44.01 46.90 47.84 46.90 47.84 C46.90 47.84 48.07 44.01 48.07 44.01 C48.07 44.01 51.90 42.84 51.90 42.84 C51.90 42.84 48.07 41.67 48.07 41.67 Z M61.74 48.00 C61.74 48.00 59.40 40.34 59.40 40.34 C59.40 40.34 57.06 48.00 57.06 48.00 C57.06 48.00 49.40 50.34 49.40 50.34 C49.40 50.34 57.06 52.69 57.06 52.69 C57.06 52.69 59.40 60.34 59.40 60.34 C59.40 60.34 61.74 52.69 61.74 52.69 C61.74 52.69 69.40 50.34 69.40 50.34 C69.40 50.34 61.74 48.00 61.74 48.00 Z M98.07 66.67 C98.07 66.67 96.90 62.84 96.90 62.84 C96.90 62.84 95.73 66.67 95.73 66.67 C95.73 66.67 91.90 67.84 91.90 67.84 C91.90 67.84 95.73 69.01 95.73 69.01 C95.73 69.01 96.90 72.84 96.90 72.84 C96.90 72.84 98.07 69.01 98.07 69.01 C98.07 69.01 101.90 67.84 101.90 67.84 C101.90 67.84 98.07 66.67 98.07 66.67 Z M73.07 41.67 C73.07 41.67 71.90 37.84 71.90 37.84 C71.90 37.84 70.73 41.67 70.73 41.67 C70.73 41.67 66.90 42.84 66.90 42.84 C66.90 42.84 70.73 44.01 70.73 44.01 C70.73 44.01 71.90 47.84 71.90 47.84 C71.90 47.84 73.07 44.01 73.07 44.01 C73.07 44.01 76.90 42.84 76.90 42.84 C76.90 42.84 73.07 41.67 73.07 41.67 Z"/>
</svg>