<?xml version="1.0" encoding="utf-8"?>
<svg xmlns="http://www.w3.org/2000/svg"
	xmlns:xlink="http://www.w3.org/1999/xlink"
	width="34px" height="56px">
<path opacity="0.50" fill="rgb(255,255,255)" fill-rule="evenodd" d="M33.20 27.86 C33.20 27.41 32.98 26.91 32.64 26.57 C32.64 26.57 6.64 0.57 6.64 0.57 C6.31 0.24 5.80 0.01 5.36 0.01 C4.91 0.01 4.41 0.24 4.07 0.57 C4.07 0.57 1.28 3.36 1.28 3.36 C0.95 3.70 0.73 4.20 0.73 4.64 C0.73 5.09 0.95 5.59 1.28 5.93 C1.28 5.93 23.21 27.86 23.21 27.86 C23.21 27.86 1.28 49.79 1.28 49.79 C0.95 50.12 0.73 50.63 0.73 51.07 C0.73 51.57 0.95 52.02 1.28 52.35 C1.28 52.35 4.07 55.14 4.07 55.14 C4.41 55.48 4.91 55.70 5.36 55.70 C5.80 55.70 6.31 55.48 6.64 55.14 C6.64 55.14 32.64 29.14 32.64 29.14 C32.98 28.81 33.20 28.30 33.20 27.86 Z"/>
</svg>