<?xml version="1.0" encoding="utf-8"?>
<svg xmlns="http://www.w3.org/2000/svg"
	xmlns:xlink="http://www.w3.org/1999/xlink"
	width="14px" height="30px">
<path fill="rgb(255,255,255)" fill-rule="evenodd" d="M9.26 9.74 C9.26 9.74 9.26 7.20 9.26 7.20 C9.26 5.88 9.38 5.16 11.27 5.16 C11.27 5.16 13.81 5.16 13.81 5.16 C13.81 5.16 13.81 0.09 13.81 0.09 C13.81 0.09 9.76 0.09 9.76 0.09 C4.88 0.09 3.17 2.56 3.17 6.68 C3.17 6.68 3.17 9.74 3.17 9.74 C3.17 9.74 0.13 9.74 0.13 9.74 C0.13 9.74 0.13 14.81 0.13 14.81 C0.13 14.81 3.17 14.81 3.17 14.81 C3.17 14.81 3.17 29.52 3.17 29.52 C3.17 29.52 9.26 29.52 9.26 29.52 C9.26 29.52 9.26 14.81 9.26 14.81 C9.26 14.81 13.31 14.81 13.31 14.81 C13.31 14.81 13.84 9.74 13.84 9.74 C13.84 9.74 9.26 9.74 9.26 9.74 Z"/>
</svg>