<?xml version="1.0" encoding="utf-8"?>
<svg xmlns="http://www.w3.org/2000/svg"
	xmlns:xlink="http://www.w3.org/1999/xlink"
	width="140px" height="140px">
<clipPath id="clip0">
<path fill-rule="evenodd" d="M-5.00 145.00 C-5.00 145.00 -5.00 -5.00 -5.00 -5.00 C-5.00 -5.00 145.00 -5.00 145.00 -5.00 C145.00 -5.00 145.00 145.00 145.00 145.00 C145.00 145.00 -5.00 145.00 -5.00 145.00 Z M70.00 5.00 C34.10 5.00 5.00 34.10 5.00 70.00 C5.00 105.90 34.10 135.00 70.00 135.00 C105.90 135.00 135.00 105.90 135.00 70.00 C135.00 34.10 105.90 5.00 70.00 5.00 Z"/>
</clipPath>
<circle clip-path="url(#clip0)" fill="none" cx="70.00" cy="70.00" r="65.00" stroke="rgb(255,255,255)" stroke-width="10.00px"/>
<circle fill="rgb(255,255,255)" cx="70.00" cy="70.00" r="60.00"/>
<path fill="rgb(199,82,89)" fill-rule="evenodd" d="M67.75 70.06 C67.75 75.57 63.25 80.06 57.75 80.06 C52.24 80.06 47.75 75.57 47.75 70.06 C47.75 64.55 52.24 60.06 57.75 60.06 C63.25 60.06 67.75 64.55 67.75 70.06 Z M97.75 90.06 C97.75 92.80 95.52 95.06 92.75 95.06 C90.01 95.06 87.75 92.83 87.75 90.06 C87.75 87.33 90.01 85.06 92.75 85.06 C95.48 85.06 97.75 87.33 97.75 90.06 Z M97.75 50.06 C97.75 52.80 95.52 55.06 92.75 55.06 C90.01 55.06 87.75 52.83 87.75 50.06 C87.75 47.33 90.01 45.06 92.75 45.06 C95.48 45.06 97.75 47.33 97.75 50.06 Z M82.75 66.51 C82.75 65.96 82.36 65.45 81.81 65.34 C81.81 65.34 75.87 64.44 75.87 64.44 C75.52 63.34 75.05 62.29 74.54 61.23 C75.64 59.71 76.81 58.30 77.94 56.78 C78.10 56.55 78.22 56.31 78.22 56.04 C78.22 54.94 73.61 50.73 72.59 49.79 C72.36 49.59 72.08 49.48 71.77 49.48 C71.50 49.48 71.22 49.55 70.99 49.75 C70.99 49.75 66.38 53.23 66.38 53.23 C65.44 52.76 64.47 52.33 63.45 52.01 C63.45 52.01 62.55 46.04 62.55 46.04 C62.47 45.49 61.93 45.06 61.38 45.06 C61.38 45.06 54.11 45.06 54.11 45.06 C53.57 45.06 53.10 45.45 52.94 46.00 C52.43 47.91 52.24 50.06 52.04 52.01 C50.99 52.37 50.01 52.76 49.04 53.26 C49.04 53.26 44.54 49.75 44.54 49.75 C44.31 49.59 44.04 49.48 43.72 49.48 C42.59 49.48 38.22 54.20 37.43 55.26 C37.24 55.49 37.16 55.76 37.16 56.04 C37.16 56.31 37.28 56.58 37.43 56.82 C38.68 58.30 39.86 59.75 40.95 61.31 C40.44 62.29 40.01 63.26 39.70 64.28 C39.70 64.28 33.65 65.22 33.65 65.22 C33.14 65.30 32.75 65.88 32.75 66.39 C32.75 66.39 32.75 73.62 32.75 73.62 C32.75 74.16 33.14 74.67 33.68 74.75 C33.68 74.75 39.62 75.69 39.62 75.69 C39.97 76.78 40.44 77.84 40.99 78.89 C39.86 80.41 38.68 81.86 37.55 83.34 C37.40 83.58 37.28 83.81 37.28 84.09 C37.28 85.22 41.89 89.40 42.90 90.33 C43.14 90.53 43.41 90.65 43.72 90.65 C44.00 90.65 44.31 90.57 44.50 90.37 C44.50 90.37 49.11 86.90 49.11 86.90 C50.05 87.37 51.03 87.80 52.04 88.11 C52.04 88.11 52.94 94.08 52.94 94.08 C53.02 94.63 53.57 95.06 54.11 95.06 C54.11 95.06 61.38 95.06 61.38 95.06 C61.93 95.06 62.40 94.67 62.55 94.12 C63.06 92.21 63.25 90.06 63.45 88.07 C64.50 87.76 65.48 87.37 66.46 86.86 C66.46 86.86 70.95 90.37 70.95 90.37 C71.18 90.53 71.46 90.65 71.77 90.65 C72.90 90.65 77.28 85.88 78.06 84.83 C78.25 84.63 78.33 84.36 78.33 84.09 C78.33 83.77 78.22 83.54 78.06 83.30 C76.81 81.82 75.64 80.37 74.54 78.81 C75.05 77.84 75.48 76.86 75.79 75.84 C75.79 75.84 81.85 74.91 81.85 74.91 C82.36 74.83 82.75 74.24 82.75 73.73 C82.75 73.73 82.75 66.51 82.75 66.51 Z M107.75 87.33 C107.75 86.74 102.71 86.19 101.93 86.12 C101.61 85.41 101.22 84.71 100.75 84.09 C101.11 83.30 102.75 79.40 102.75 78.69 C102.75 78.62 102.71 78.50 102.59 78.42 C102.12 78.15 97.94 75.69 97.75 75.69 C97.75 75.69 97.51 75.76 97.51 75.76 C96.18 77.09 95.01 78.62 93.92 80.14 C93.53 80.10 93.14 80.06 92.75 80.06 C92.36 80.06 91.97 80.10 91.58 80.14 C91.18 79.55 88.25 75.69 87.75 75.69 C87.55 75.69 83.37 78.19 82.90 78.42 C82.79 78.50 82.75 78.62 82.75 78.69 C82.75 79.36 84.39 83.30 84.74 84.09 C84.27 84.71 83.88 85.41 83.57 86.12 C82.79 86.19 77.75 86.74 77.75 87.33 C77.75 87.33 77.75 92.80 77.75 92.80 C77.75 93.38 82.79 93.93 83.57 94.01 C83.88 94.75 84.27 95.41 84.74 96.04 C84.39 96.82 82.75 100.76 82.75 101.43 C82.75 101.51 82.79 101.62 82.90 101.70 C83.37 101.98 87.55 104.48 87.75 104.48 C88.25 104.48 91.18 100.57 91.58 99.98 C91.97 100.02 92.36 100.06 92.75 100.06 C93.14 100.06 93.53 100.02 93.92 99.98 C94.31 100.57 97.24 104.48 97.75 104.48 C97.94 104.48 102.12 101.98 102.59 101.70 C102.71 101.62 102.75 101.55 102.75 101.43 C102.75 100.73 101.11 96.82 100.75 96.04 C101.22 95.41 101.61 94.75 101.93 94.01 C102.71 93.93 107.75 93.38 107.75 92.80 C107.75 92.80 107.75 87.33 107.75 87.33 Z M107.75 47.33 C107.75 46.74 102.71 46.19 101.93 46.12 C101.61 45.41 101.22 44.71 100.75 44.09 C101.11 43.30 102.75 39.40 102.75 38.69 C102.75 38.62 102.71 38.50 102.59 38.42 C102.12 38.15 97.94 35.69 97.75 35.69 C97.75 35.69 97.51 35.76 97.51 35.76 C96.18 37.09 95.01 38.62 93.92 40.14 C93.53 40.10 93.14 40.06 92.75 40.06 C92.36 40.06 91.97 40.10 91.58 40.14 C91.18 39.55 88.25 35.69 87.75 35.69 C87.55 35.69 83.37 38.19 82.90 38.42 C82.79 38.50 82.75 38.62 82.75 38.69 C82.75 39.36 84.39 43.30 84.74 44.09 C84.27 44.71 83.88 45.41 83.57 46.12 C82.79 46.19 77.75 46.74 77.75 47.33 C77.75 47.33 77.75 52.80 77.75 52.80 C77.75 53.38 82.79 53.93 83.57 54.01 C83.88 54.75 84.27 55.41 84.74 56.04 C84.39 56.82 82.75 60.76 82.75 61.43 C82.75 61.51 82.79 61.62 82.90 61.70 C83.37 61.98 87.55 64.48 87.75 64.48 C88.25 64.48 91.18 60.57 91.58 59.98 C91.97 60.02 92.36 60.06 92.75 60.06 C93.14 60.06 93.53 60.02 93.92 59.98 C94.31 60.57 97.24 64.48 97.75 64.48 C97.94 64.48 102.12 61.98 102.59 61.70 C102.71 61.62 102.75 61.55 102.75 61.43 C102.75 60.73 101.11 56.82 100.75 56.04 C101.22 55.41 101.61 54.75 101.93 54.01 C102.71 53.93 107.75 53.38 107.75 52.80 C107.75 52.80 107.75 47.33 107.75 47.33 Z"/>
</svg>