<?xml version="1.0" encoding="utf-8"?>
<svg xmlns="http://www.w3.org/2000/svg"
	xmlns:xlink="http://www.w3.org/1999/xlink"
	width="164px" height="164px">
<clipPath id="clip0">
<path fill-rule="evenodd" d="M-5.00 169.00 C-5.00 169.00 -5.00 -5.00 -5.00 -5.00 C-5.00 -5.00 169.00 -5.00 169.00 -5.00 C169.00 -5.00 169.00 169.00 169.00 169.00 C169.00 169.00 -5.00 169.00 -5.00 169.00 Z M82.00 4.99 C39.47 4.99 4.99 39.47 4.99 82.00 C4.99 124.53 39.47 159.01 82.00 159.01 C124.53 159.01 159.01 124.53 159.01 82.00 C159.01 39.47 124.53 4.99 82.00 4.99 Z"/>
</clipPath>
<clipPath id="clip1">
<use xlink:href="#symbol1"/>
</clipPath>
<defs>
<circle id="symbol0" cx="82.00" cy="82.00" r="77.00"/>
<circle id="symbol1" cx="82.00" cy="82.00" r="75.00"/>
</defs>
<g>
<use xlink:href="#symbol0" fill="rgb(255,255,255)"/>
<use clip-path="url(#clip0)" xlink:href="#symbol0" fill="none" stroke="rgb(161,133,157)" stroke-width="10.00px"/>
</g>
<circle fill="rgb(255,255,255)" cx="82.00" cy="82.00" r="75.00"/>
<g>
<use xlink:href="#symbol1" fill="rgb(255,255,255)"/>
<path clip-path="url(#clip1)" fill="rgb(91,75,89)" fill-rule="evenodd" d="M76.89 17.41 C71.43 17.41 72.27 19.86 69.33 20.28 C66.39 20.70 69.92 19.10 61.11 20.78 C52.29 22.46 49.18 33.83 48.76 38.04 C48.34 42.25 48.23 54.09 48.51 60.41 C49.35 64.19 46.41 64.19 46.41 64.19 C41.13 63.85 43.51 80.36 43.51 80.36 C44.26 84.43 43.23 86.46 51.05 89.61 C54.78 100.26 64.51 105.89 64.51 105.89 C64.51 105.89 64.56 112.46 64.71 117.32 C63.91 116.92 67.43 129.74 43.13 133.34 C18.83 136.94 14.18 144.83 9.60 149.22 C5.02 153.62 5.19 174.92 5.19 174.92 C5.19 174.92 162.02 175.01 162.02 175.01 C162.02 175.01 160.85 153.62 156.27 149.22 C151.69 144.83 146.70 136.94 122.40 133.34 C98.78 129.91 102.66 117.27 102.49 116.51 C102.54 114.60 102.79 106.47 102.79 106.47 C102.79 106.47 111.04 99.94 114.77 89.29 C120.63 85.58 122.86 85.06 123.83 80.79 C123.83 80.79 125.56 64.11 120.02 64.19 C120.02 64.19 117.40 65.04 118.24 61.25 C119.08 57.46 118.80 45.62 118.38 41.41 C117.96 37.20 118.59 25.17 109.77 23.48 C103.76 22.36 102.97 23.47 100.03 23.05 C97.09 22.63 93.59 14.99 88.14 14.99 C88.14 14.99 76.89 17.41 76.89 17.41 Z"/>
</g>
</svg>